# xmcd
#
# Track frame offsets: 
#        150
#        25077
#        40722
#        56780
#        75295
#        104607
#        124340
#        152685
#        189067
#        218880
#
# Disc length: 3296 seconds
#
# Revision: 2
# Processed by: cddbd v1.5.2PL0 Copyright (c) Steve Scherf et al.
# Submitted via: ExactAudioCopy v0.99pb5
#
DISCID=790cde0a
DTITLE=LARRY FULLER TRIO - EASY WALKER
DYEAR=2001
DGENRE=Jazz
TTITLE0=Groove Yard
TTITLE1=In Like Flynn
TTITLE2=Hymne a L' Amour
TTITLE3=Ray's Idea
TTITLE4=Easy Walker
TTITLE5=Caravan
TTITLE6=Compassion
TTITLE7=Honey Suckle Rose
TTITLE8=Consider
TTITLE9=Candy's Blues
EXTD=YEAR: 2001
EXTT0=
EXTT1=
EXTT2=
EXTT3=
EXTT4=
EXTT5=
EXTT6=
EXTT7=
EXTT8=
EXTT9=
PLAYORDER=
